<svg xmlns="http://www.w3.org/2000/svg" viewBox="0 0 32 40" x="0px" y="0px"><title>Tic tac toe</title><g data-name="Layer 1"><circle cx="16" cy="26" r="4"/><circle cx="6" cy="26" r="4"/><circle cx="16" cy="6" r="4"/><circle cx="26" cy="6" r="4"/><circle cx="26" cy="16" r="4"/><path d="M9.71,2.29a1,1,0,0,0-1.41,0L6,4.59,3.71,2.29A1,1,0,0,0,2.29,3.71L4.59,6,2.29,8.29A1,1,0,0,0,3.71,9.71L6,7.41,8.29,9.71A1,1,0,0,0,9.71,8.29L7.41,6,9.71,3.71A1,1,0,0,0,9.71,2.29Z"/><path d="M19.71,12.29a1,1,0,0,0-1.41,0L16,14.59l-2.29-2.29a1,1,0,0,0-1.41,1.41L14.59,16l-2.29,2.29a1,1,0,0,0,1.41,1.41L16,17.41l2.29,2.29a1,1,0,0,0,1.41-1.41L17.41,16l2.29-2.29A1,1,0,0,0,19.71,12.29Z"/><path d="M9.71,12.29a1,1,0,0,0-1.41,0L6,14.59,3.71,12.29a1,1,0,0,0-1.41,1.41L4.59,16,2.29,18.29a1,1,0,0,0,1.41,1.41L6,17.41l2.29,2.29a1,1,0,0,0,1.41-1.41L7.41,16l2.29-2.29A1,1,0,0,0,9.71,12.29Z"/><path d="M29.71,22.29a1,1,0,0,0-1.41,0L26,24.59l-2.29-2.29a1,1,0,0,0-1.41,1.41L24.59,26l-2.29,2.29a1,1,0,0,0,1.41,1.41L26,27.41l2.29,2.29a1,1,0,0,0,1.41-1.41L27.41,26l2.29-2.29A1,1,0,0,0,29.71,22.29Z"/></g><text x="0" y="47" fill="#000000" font-size="5px" font-weight="bold" font-family="'Helvetica Neue', Helvetica, Arial-Unicode, Arial, Sans-serif">Created by Nasik Lababan</text><text x="0" y="52" fill="#000000" font-size="5px" font-weight="bold" font-family="'Helvetica Neue', Helvetica, Arial-Unicode, Arial, Sans-serif">from the Noun Project</text></svg>